# xmcd
# 
# Track frame offsets:
#     150
#     20142
#     40495
#     63812
#     87800
#     103095
#     113497
#     136100
#     161740
#     176345
#     199340
#     218732
# 
# Disc length: 3022
# 
# Revision: 1
# Processed by: cddbd v1.5.2PL0 Copyright (c) Steve Scherf et al.
# Submitted via: BonkEnc v1.0
# 
DISCID=9f0bcc0c
DTITLE=Orhan Gencebay - Yalniz Degilsin
DYEAR=0
DGENRE=Blues
TTITLE0=Aklim Takildi
TTITLE1=Al Hanceri
TTITLE2=Yalniz Degilsin
TTITLE3=Ayrilik Nikahi
TTITLE4=Gonulden gonule
TTITLE5=Nihavent Uvertur
TTITLE6=Coban Kizi
TTITLE7=Gonul Dagi
TTITLE8=Bir Ozurle Dil Asinmaz
TTITLE9=Demedimmi
TTITLE10=En Nihayet Bir Insansin
TTITLE11=Gencebay Oryantal
EXTD=Zemac
EXTT0=
EXTT1=
EXTT2=
EXTT3=
EXTT4=
EXTT5=
EXTT6=
EXTT7=
EXTT8=
EXTT9=
EXTT10=
EXTT11=
PLAYORDER=
